<svg width="1289" height="891" viewBox="0 0 1289 891" fill="none" xmlns="http://www.w3.org/2000/svg">
<path d="M36 863V24H1253V863H36Z" stroke="#F5CE00"/>
<path d="M3 824.037V66.9629C26.1937 65.1306 80.5906 49.3728 112.628 1H1177.37M109.124 890H1181.38C1187.55 869.512 1217.52 828.035 1288 826.036" stroke="#F5CE00"/>
<path d="M1286 828V67.2805C1262.73 65.4394 1208.15 49.6057 1176 1" stroke="#F5CE00"/>
<path d="M36 863V24H1253V863H36Z" stroke="#F5CE00"/>
<path d="M3 824.037V66.9629C26.1937 65.1306 80.5906 49.3728 112.628 1H1177.37M109.124 890H1181.38C1187.55 869.512 1217.52 828.035 1288 826.036" stroke="#F5CE00"/>
<path d="M1286 828V67.2805C1262.73 65.4394 1208.15 49.6057 1176 1" stroke="#F5CE00"/>
<path d="M0.454891 824C23.6084 825.992 77.8317 842.124 109.497 890.714" stroke="#F5CE00"/>
</svg>
