<svg width="1024" height="1100" viewBox="0 0 1024 1100" fill="none" xmlns="http://www.w3.org/2000/svg">
<rect width="1024" height="1100" fill="#1C0802"/>
<path d="M91.7993 75.6507L935.065 75.6201L935.229 1023.1L91.9631 1023.13L91.7993 75.6507Z" stroke="#F5CE00"/>
<path d="M130.956 49.9597L891.879 49.9321C893.724 67.9892 909.569 110.339 958.192 135.279L958.336 964.22M64.6722 132.583L64.8165 967.371C85.4099 972.177 127.102 995.506 129.12 1050.38" stroke="#F5CE00"/>
<path d="M127.146 1048.82L891.733 1048.79C893.581 1030.67 909.488 988.18 958.336 963.151" stroke="#F5CE00"/>
<path d="M91.7993 75.6507L935.065 75.6201L935.229 1023.1L91.9631 1023.13L91.7993 75.6507Z" stroke="#F5CE00"/>
<path d="M130.956 49.9597L891.879 49.9321C893.724 67.9892 909.569 110.339 958.192 135.279L958.336 964.22M64.6722 132.583L64.8165 967.371C85.4099 972.177 127.102 995.506 129.12 1050.38" stroke="#F5CE00"/>
<path d="M127.146 1048.82L891.733 1048.79C893.581 1030.67 909.488 988.18 958.336 963.151" stroke="#F5CE00"/>
<path d="M130.993 47.9777C128.994 66.0036 112.788 108.219 63.9552 132.874" stroke="#F5CE00"/>
</svg>
