<svg width="51" height="51" viewBox="0 0 51 51" fill="none" xmlns="http://www.w3.org/2000/svg">
<path d="M25.4973 13.0957C22.0737 13.0957 18.7903 14.4557 16.3695 16.8766C13.9486 19.2974 12.5886 22.5808 12.5886 26.0044C12.5886 29.428 13.9486 32.7113 16.3695 35.1322C18.7903 37.553 22.0737 38.913 25.4973 38.913C28.9209 38.913 32.2043 37.553 34.6251 35.1322C37.0459 32.7113 38.406 29.428 38.406 26.0044C38.406 22.5808 37.0459 19.2974 34.6251 16.8766C32.2043 14.4557 28.9209 13.0957 25.4973 13.0957V13.0957ZM25.4973 34.3877C23.2731 34.3877 21.1401 33.5042 19.5674 31.9315C17.9947 30.3588 17.1111 28.2257 17.1111 26.0016C17.1111 23.7774 17.9947 21.6444 19.5674 20.0717C21.1401 18.499 23.2731 17.6154 25.4973 17.6154C27.7214 17.6154 29.8545 18.499 31.4272 20.0717C32.9999 21.6444 33.8835 23.7774 33.8835 26.0016C33.8835 28.2257 32.9999 30.3588 31.4272 31.9315C29.8545 33.5042 27.7214 34.3877 25.4973 34.3877V34.3877Z" fill="#F5CE00"/>
<path d="M38.9166 14.1289C40.5787 14.1289 41.9261 12.7816 41.9261 11.1195C41.9261 9.45747 40.5787 8.11011 38.9166 8.11011C37.2546 8.11011 35.9072 9.45747 35.9072 11.1195C35.9072 12.7816 37.2546 14.1289 38.9166 14.1289Z" fill="#F5CE00"/>
<path d="M49.3213 8.93691C48.675 7.26799 47.6874 5.7524 46.4217 4.48715C45.156 3.22191 43.64 2.23487 41.9709 1.58924C40.0176 0.856029 37.9541 0.459568 35.8683 0.416741C33.1799 0.299491 32.3284 0.265991 25.5112 0.265991C18.6939 0.265991 17.8202 0.265991 15.1541 0.416741C13.0698 0.457379 11.0078 0.85392 9.05711 1.58924C7.38752 2.23412 5.87116 3.22089 4.60534 4.48623C3.33951 5.75158 2.35217 7.26756 1.70666 8.93691C0.973299 10.89 0.577747 12.9537 0.536949 15.0395C0.416907 17.7251 0.380615 18.5765 0.380615 25.3966C0.380615 32.2138 0.380615 33.082 0.536949 35.7537C0.578824 37.8418 0.972448 39.9021 1.70666 41.859C2.35398 43.5278 3.34228 45.0431 4.60841 46.3083C5.87455 47.5735 7.39067 48.5606 9.0599 49.2067C11.0069 49.9694 13.0698 50.3942 15.1597 50.4629C17.8481 50.5802 18.6995 50.6165 25.5168 50.6165C32.334 50.6165 33.2078 50.6165 35.8739 50.4629C37.9595 50.4205 40.0229 50.025 41.9764 49.2932C43.6452 48.6461 45.1607 47.6582 46.4263 46.3926C47.6919 45.127 48.6798 43.6115 49.3269 41.9428C50.0611 39.9886 50.4547 37.9284 50.4966 35.8402C50.6166 33.1546 50.6529 32.3032 50.6529 25.4831C50.6529 18.6631 50.6529 17.7977 50.4966 15.126C50.4641 13.0107 50.0665 10.9169 49.3213 8.93691V8.93691ZM45.9211 35.5471C45.9031 37.1559 45.6094 38.7498 45.0529 40.2594C44.6336 41.345 43.9918 42.3308 43.1687 43.1535C42.3456 43.9761 41.3594 44.6173 40.2735 45.0359C38.7806 45.5899 37.2037 45.8836 35.6114 45.9042C32.9594 46.027 32.2112 46.0577 25.4107 46.0577C18.6046 46.0577 17.9095 46.0577 15.2072 45.9042C13.6157 45.8847 12.0395 45.591 10.5479 45.0359C9.45824 44.6199 8.46808 43.9798 7.64143 43.157C6.81479 42.3342 6.17007 41.3471 5.74899 40.2594C5.20028 38.766 4.90678 37.1909 4.88078 35.6001C4.76074 32.948 4.73282 32.1999 4.73282 25.3994C4.73282 18.5961 4.73282 17.9009 4.88078 15.1958C4.89883 13.5879 5.19248 11.995 5.74899 10.4863C6.60045 8.28366 8.34524 6.55003 10.5479 5.70695C12.0403 5.15459 13.616 4.86097 15.2072 4.83874C17.862 4.7187 18.6074 4.6852 25.4107 4.6852C32.214 4.6852 32.9119 4.6852 35.6114 4.83874C37.2038 4.8579 38.781 5.15161 40.2735 5.70695C41.3593 6.12646 42.3453 6.76835 43.1684 7.59141C43.9915 8.41447 44.6333 9.40052 45.0529 10.4863C45.6016 11.9797 45.8951 13.5548 45.9211 15.1456C46.0411 17.8004 46.0718 18.5458 46.0718 25.3491C46.0718 32.1496 46.0718 32.881 45.9518 35.5499H45.9211V35.5471Z" fill="#F5CE00"/>
</svg>
