<svg width="320" height="700" viewBox="0 0 320 700" fill="none" xmlns="http://www.w3.org/2000/svg">
<rect width="320" height="700" fill="#1C0802"/>
<path d="M28.6873 48.1416L292.208 48.1221L292.259 651.063L28.7385 651.083L28.6873 48.1416Z" stroke="#F5CE00"/>
<path d="M40.9238 31.7926L278.712 31.775C279.289 43.2659 284.24 70.2154 299.435 86.0867L299.48 613.595M20.21 84.3713L20.2551 615.6C26.6906 618.658 39.7192 633.504 40.35 668.423" stroke="#F5CE00"/>
<path d="M39.7332 667.431L278.667 667.414C279.244 655.884 284.215 628.842 299.48 612.915" stroke="#F5CE00"/>
<path d="M28.6873 48.1416L292.208 48.1221L292.259 651.063L28.7385 651.083L28.6873 48.1416Z" stroke="#F5CE00"/>
<path d="M40.9238 31.7926L278.712 31.775C279.289 43.2659 284.24 70.2154 299.435 86.0867L299.48 613.595M20.21 84.3713L20.2551 615.6C26.6906 618.658 39.7192 633.504 40.35 668.423" stroke="#F5CE00"/>
<path d="M39.7332 667.431L278.667 667.414C279.244 655.884 284.215 628.842 299.48 612.915" stroke="#F5CE00"/>
<path d="M40.9353 30.5324C40.3106 42.0035 35.2462 68.8679 19.9859 84.5572" stroke="#F5CE00"/>
</svg>
