<svg width="1200" height="1400" viewBox="0 0 1200 1400" fill="none" xmlns="http://www.w3.org/2000/svg">
<rect width="1200" height="1400" fill="#1C0802"/>
<path d="M107.577 96.2821L1095.78 96.2432L1095.97 1302.13L107.769 1302.16L107.577 96.2821Z" stroke="#F5CE00"/>
<path d="M153.464 63.5841L1045.17 63.549C1047.33 86.5307 1065.9 140.43 1122.88 172.172L1123.05 1227.19M75.7876 168.742L75.9567 1231.2C100.09 1237.31 148.947 1267.01 151.312 1336.85" stroke="#F5CE00"/>
<path d="M149 1334.86L1045 1334.83C1047.16 1311.77 1065.81 1257.68 1123.05 1225.83" stroke="#F5CE00"/>
<path d="M107.577 96.2821L1095.78 96.2432L1095.97 1302.13L107.769 1302.16L107.577 96.2821Z" stroke="#F5CE00"/>
<path d="M153.464 63.5841L1045.17 63.549C1047.33 86.5307 1065.9 140.43 1122.88 172.172L1123.05 1227.19M75.7876 168.742L75.9567 1231.2C100.09 1237.31 148.947 1267.01 151.312 1336.85" stroke="#F5CE00"/>
<path d="M149 1334.86L1045 1334.83C1047.16 1311.77 1065.81 1257.68 1123.05 1225.83" stroke="#F5CE00"/>
<path d="M153.507 61.0629C151.165 84.005 132.173 137.734 74.9473 169.112" stroke="#F5CE00"/>
</svg>
