<svg width="30" height="46" viewBox="0 0 58 52" fill="none" xmlns="http://www.w3.org/2000/svg">
<path d="M55.7113 36.8648H17.2106L19.1437 32.9391L51.2632 32.8811C52.3493 32.8811 53.2803 32.1076 53.4743 31.0376L57.9224 6.21396C58.0388 5.56291 57.8642 4.89252 57.4375 4.38329C57.2266 4.13267 56.9636 3.93079 56.6666 3.79166C56.3696 3.65252 56.0459 3.57946 55.7178 3.57754L14.8572 3.44217L14.5081 1.80488C14.2883 0.76063 13.3443 0 12.2711 0H2.28224C1.67695 0 1.09646 0.239733 0.668453 0.666462C0.24045 1.09319 0 1.67196 0 2.27544C0 2.87893 0.24045 3.4577 0.668453 3.88442C1.09646 4.31115 1.67695 4.55089 2.28224 4.55089H10.422L11.9478 11.7833L15.7042 29.916L10.8681 37.7865C10.617 38.1245 10.4657 38.5258 10.4314 38.945C10.3972 39.3642 10.4812 39.7846 10.6742 40.1587C11.0621 40.9257 11.8444 41.4092 12.7107 41.4092H16.7709C15.9053 42.5554 15.4378 43.9516 15.4391 45.3864C15.4391 49.0348 18.4131 52 22.0725 52C25.7318 52 28.7058 49.0348 28.7058 45.3864C28.7058 43.9489 28.2274 42.5501 27.374 41.4092H37.7895C36.924 42.5554 36.4564 43.9516 36.4577 45.3864C36.4577 49.0348 39.4317 52 43.0911 52C46.7504 52 49.7244 49.0348 49.7244 45.3864C49.7244 43.9489 49.246 42.5501 48.3926 41.4092H55.7178C56.972 41.4092 58 40.3907 58 39.1338C57.9962 38.5309 57.7535 37.954 57.3247 37.5289C56.896 37.1038 56.316 36.8651 55.7113 36.8648ZM15.8076 7.9286L53.0347 8.05107L49.3882 28.4076L20.1458 28.4592L15.8076 7.9286ZM22.0725 47.4233C20.9475 47.4233 20.0294 46.508 20.0294 45.3864C20.0294 44.2648 20.9475 43.3494 22.0725 43.3494C23.1974 43.3494 24.1155 44.2648 24.1155 45.3864C24.1155 45.9266 23.9002 46.4447 23.5171 46.8267C23.134 47.2087 22.6143 47.4233 22.0725 47.4233ZM43.0911 47.4233C41.9661 47.4233 41.048 46.508 41.048 45.3864C41.048 44.2648 41.9661 43.3494 43.0911 43.3494C44.216 43.3494 45.1341 44.2648 45.1341 45.3864C45.1341 45.9266 44.9188 46.4447 44.5357 46.8267C44.1526 47.2087 43.6329 47.4233 43.0911 47.4233Z" fill="#FFD233"/>
</svg>
