<svg width="768" height="900" viewBox="0 0 768 900" fill="none" xmlns="http://www.w3.org/2000/svg">
<rect width="768" height="900" fill="#1C0802"/>
<path d="M68.8495 61.8961L701.299 61.8711L701.422 837.081L68.9723 837.106L68.8495 61.8961Z" stroke="#F5CE00"/>
<path d="M98.2171 40.8761L668.909 40.8535C670.293 55.6275 682.177 90.277 718.644 110.683L718.752 788.908M48.5041 108.477L48.6124 791.485C64.0575 795.417 95.3262 814.505 96.84 859.401" stroke="#F5CE00"/>
<path d="M95.3598 858.126L668.8 858.104C670.186 843.279 682.116 808.511 718.752 788.033" stroke="#F5CE00"/>
<path d="M68.8495 61.8961L701.299 61.8711L701.422 837.081L68.9723 837.106L68.8495 61.8961Z" stroke="#F5CE00"/>
<path d="M98.2171 40.8761L668.909 40.8535C670.293 55.6275 682.177 90.277 718.644 110.683L718.752 788.908M48.5041 108.477L48.6124 791.485C64.0575 795.417 95.3262 814.505 96.84 859.401" stroke="#F5CE00"/>
<path d="M95.3598 858.126L668.8 858.104C670.186 843.279 682.116 808.511 718.752 788.033" stroke="#F5CE00"/>
<path d="M98.2447 39.2546C96.7455 54.0031 84.5909 88.543 47.9662 108.715" stroke="#F5CE00"/>
</svg>
