<svg width="47" height="47" viewBox="0 0 47 47" fill="none" xmlns="http://www.w3.org/2000/svg">
<path fill-rule="evenodd" clip-rule="evenodd" d="M34.2685 28.1648C33.6821 27.873 30.8072 26.4669 30.272 26.2711C29.7368 26.0772 29.3471 25.9812 28.9556 26.5648C28.5659 27.1445 27.4463 28.4566 27.1059 28.8443C26.7635 29.234 26.423 29.281 25.8386 28.9912C25.2542 28.6974 23.3691 28.0845 21.1357 26.1027C19.3982 24.5595 18.2234 22.654 17.883 22.0705C17.5426 21.4888 17.8456 21.1735 18.1388 20.8837C18.4025 20.6233 18.7232 20.2042 19.0164 19.8654C19.3096 19.5246 19.406 19.2818 19.6008 18.8921C19.7976 18.5043 19.6992 18.1655 19.5516 17.8738C19.406 17.582 18.2372 14.7169 17.7492 13.5517C17.2749 12.4179 16.7928 12.5726 16.4347 12.553C16.0923 12.5373 15.7027 12.5334 15.3131 12.5334C14.9235 12.5334 14.2899 12.6783 13.7546 13.2619C13.2174 13.8435 11.7082 15.2516 11.7082 18.1166C11.7082 20.9797 13.8019 23.7468 14.095 24.1365C14.3882 24.5242 18.2175 30.4032 24.0834 32.9235C25.4805 33.5228 26.5687 33.8811 27.4168 34.1475C28.8178 34.592 30.0929 34.5294 31.1004 34.3786C32.222 34.2121 34.5597 32.9705 35.0477 31.6114C35.5338 30.2524 35.5338 29.0872 35.3881 28.8443C35.2425 28.6015 34.8529 28.4566 34.2665 28.1648H34.2685ZM23.5993 42.6623H23.5914C20.1074 42.6629 16.6873 41.7308 13.6897 39.9637L12.9813 39.5446L5.61795 41.4677L7.58374 34.3237L7.12131 33.5913C5.17351 30.5057 4.14271 26.9345 4.14803 23.2905C4.15197 12.6176 12.877 3.93437 23.6072 3.93437C28.8021 3.93437 33.686 5.95145 37.3579 9.60961C39.169 11.4046 40.6044 13.5391 41.5812 15.8898C42.558 18.2404 43.0568 20.7605 43.0486 23.3042C43.0447 33.9771 34.3197 42.6623 23.5993 42.6623ZM40.1521 6.83074C37.984 4.6588 35.4043 2.93667 32.5626 1.76414C29.7209 0.591621 26.6736 -0.00798264 23.5973 8.02476e-05C10.7007 8.02476e-05 0.200711 10.4478 0.196776 23.2885C0.1908 27.3751 1.26797 31.3909 3.31961 34.9308L0 47L12.4047 43.7609C15.8363 45.6216 19.6817 46.5965 23.5895 46.5966H23.5993C36.496 46.5966 46.996 36.1489 46.9999 23.3062C47.0094 20.2458 46.4091 17.214 45.2337 14.386C44.0583 11.5581 42.3311 8.99013 40.1521 6.83074Z" fill="#FFD233"/>
</svg>
